<svg xmlns="http://www.w3.org/2000/svg" viewBox="0 0 49.65 49.65"><title>12Fichier 1</title><g id="Calque_2" data-name="Calque 2"><g id="Capa_1" data-name="Capa 1"><path d="M24.83,29.8a5,5,0,1,0-4-7.87,4.9,4.9,0,0,0-.94,2.9A5,5,0,0,0,24.83,29.8Z"/><polygon points="35.68 18.75 35.68 14.58 35.68 13.96 35.05 13.96 30.89 13.97 30.91 18.76 35.68 18.75"/><path d="M24.83,0A24.83,24.83,0,1,0,49.65,24.83,24.86,24.86,0,0,0,24.83,0ZM38.94,21.93V33.49A5.46,5.46,0,0,1,33.49,39H16.16a5.46,5.46,0,0,1-5.45-5.46V16.17a5.46,5.46,0,0,1,5.45-5.46H33.49a5.46,5.46,0,0,1,5.45,5.46Z"/><path d="M32.55,24.83a7.73,7.73,0,1,1-14.88-2.9H13.46V33.49a2.7,2.7,0,0,0,2.7,2.7H33.49a2.7,2.7,0,0,0,2.7-2.7V21.93H32A7.73,7.73,0,0,1,32.55,24.83Z"/></g></g></svg>