<svg xmlns="http://www.w3.org/2000/svg" viewBox="0 0 208.12 90.52"><defs><style>.cls-1,.cls-2{fill:#fff;}.cls-2{font-size:30px;font-family:WorkSans-LightItalic, Work Sans;font-weight:300;font-style:italic;}.cls-3{letter-spacing:0em;}.cls-4{letter-spacing:0em;}.cls-5{letter-spacing:-0.01em;}.cls-6{letter-spacing:0em;}</style></defs><title>12Fichier 14</title><g id="Calque_2" data-name="Calque 2"><g id="Calque_1-2" data-name="Calque 1"><path class="cls-1" d="M72.05,27.16a5,5,0,0,0-.6-3.31c-.12-.26-.25-.53-.36-.83a3,3,0,0,1-.15-.48,2,2,0,0,1,0-.54,8,8,0,0,0,0-1.7c-.21-2.26-1.71-4.09-3.2-5.9L66.58,13,66,12.34,65.73,12a1.09,1.09,0,0,1-.2-.44,1.19,1.19,0,0,1,0-.33,2.1,2.1,0,0,1,.08-.37,10.57,10.57,0,0,1,.87-1.75c.3-.53.62-1,.94-1.54,1.28-2,2.64-4,3.91-6l.44-.71.09-.16,0,0c0,.27.13-.64-.1.59,1.78,1.89,1,.52,1.26.93h0l-.34.13L71.1,3,67.84,4.45c-2.2.93-4.38,1.86-6.68,2.69-.58.2-1.16.4-1.81.56-.17,0-.33.08-.53.12l-.49.07a6,6,0,0,0-.58.16,10.32,10.32,0,0,0-2.67,1.57,17.35,17.35,0,0,0-4.17,5,23,23,0,0,0-2.35,6.21l-.31,1.66-.16.89c-.06.32-.12.65-.2,1A14.52,14.52,0,0,1,46.44,28a14.37,14.37,0,0,1-5.64,5.44A24.23,24.23,0,0,1,37.32,35a10.68,10.68,0,0,0-2.7,1.49,18.35,18.35,0,0,0-4.32,4.92,35.62,35.62,0,0,0-3,6.13,60.5,60.5,0,0,0-2.09,6.65A32,32,0,0,0,24,61a31.41,31.41,0,0,0,2.55,13.38c.4,1.09.91,2.14,1.37,3.21a3.75,3.75,0,0,1,.38,2.37A3.31,3.31,0,0,1,26.84,82a7.82,7.82,0,0,1-3.91,1.15,15.87,15.87,0,0,1-3.78-.28A22.39,22.39,0,0,1,6.61,75.43a27.62,27.62,0,0,1-6-13.17,46,46,0,0,1,0-14.39c.34-2.37.81-4.72,1.38-7A46.89,46.89,0,0,1,4.1,34a27.89,27.89,0,0,1,3.48-6.3,12.58,12.58,0,0,1,5.62-4.51,4.71,4.71,0,0,1,3.68.11,3.37,3.37,0,0,1,1.33,1.37,4.14,4.14,0,0,1,.4,1.83,7.53,7.53,0,0,1-1,3.47,16.46,16.46,0,0,1-2.13,2.89l-.1.11-.22-.2.09-.11a15.86,15.86,0,0,0,2-2.87,7.19,7.19,0,0,0,.9-3.29,3.85,3.85,0,0,0-.38-1.61,3,3,0,0,0-1.14-1.12,4.14,4.14,0,0,0-3.24,0,12,12,0,0,0-5.22,4.38,27.9,27.9,0,0,0-3.25,6.19,47.17,47.17,0,0,0-2,6.75c-.51,2.3-.93,4.61-1.21,7A45,45,0,0,0,2.06,62,26,26,0,0,0,7.91,74.29,20.55,20.55,0,0,0,19.5,80.93a13.16,13.16,0,0,0,3.3.19,5.8,5.8,0,0,0,2.84-.82,1.24,1.24,0,0,0,.57-.78A1.72,1.72,0,0,0,26,78.46c-.49-1.1-1-2.18-1.47-3.31a33.78,33.78,0,0,1-2.93-14.31,34.62,34.62,0,0,1,1.17-7.25,61.2,61.2,0,0,1,2-7A37.4,37.4,0,0,1,27.89,40a21.32,21.32,0,0,1,4.92-5.8,14,14,0,0,1,3.48-2,20.58,20.58,0,0,0,3-1.37,11.82,11.82,0,0,0,4.45-4.34,11.41,11.41,0,0,0,1.15-2.89c.07-.25.12-.51.17-.77l.16-.86.36-1.83a25.61,25.61,0,0,1,2.74-7,19.69,19.69,0,0,1,5-5.73,12.78,12.78,0,0,1,3.49-1.92A5.72,5.72,0,0,1,58,5.19l.38-.05.34-.06c.5-.12,1.06-.28,1.6-.45,2.19-.7,4.41-1.55,6.61-2.4L70.24.94,71.93.31l.5-.17.12,0c.25.41-.44-1,1.37.93-.25,1.26-.09.39-.16.68l0,.06L73.59,2l-.53.77c-1.41,2-2.84,3.81-4.2,5.74-.34.48-.67,1-1,1.44a10.5,10.5,0,0,0-.8,1.39s0,.09,0,.06a.58.58,0,0,0,0-.1c0-.13-.18-.35-.11-.25l.27.36.52.71,1.06,1.44a27.14,27.14,0,0,1,2,3.06,8.42,8.42,0,0,1,1,3.6,9.44,9.44,0,0,1-.11,1.85A3.32,3.32,0,0,0,72,23.62a5.47,5.47,0,0,1,.32,3.61l0,.15L72,27.3Z"/><text class="cls-2" transform="translate(36.76 82.15)"><tspan class="cls-3">h</tspan><tspan class="cls-4" x="17.37" y="0">air</tspan><tspan class="cls-5" x="53.01" y="0">l</tspan><tspan x="60.81" y="0">ess</tspan><tspan class="cls-6" x="107.4" y="0">n</tspan><tspan x="124.77" y="0">ess</tspan></text></g></g></svg>